name Walk9.mot
datacolumns 19
datarows 10
range 2.24600000 2.25500000
endheader

                time	   L_ground_force_vx	   L_ground_force_vy	   L_ground_force_vz	   L_ground_force_px	   L_ground_force_py	   L_ground_force_pz	   R_ground_force_vx	   R_ground_force_vy	   R_ground_force_vz	   R_ground_force_px	   R_ground_force_py	   R_ground_force_pz	   L_ground_torque_x	   L_ground_torque_y	   L_ground_torque_z	   R_ground_torque_x	   R_ground_torque_y	   R_ground_torque_z	
          2.24600000	          0.00000000	          0.00000000	          0.00000000	         -0.00000000	          0.00000000	         -0.00000000	          1.96339311	          9.45476918	          1.79453302	          0.13716199	          0.00000000	          0.03076710	          0.00000000	          0.00000000	          0.00000000	          0.00000000	          0.05765909	          0.00000000	
          2.24700000	          0.00000000	          0.00000000	          0.00000000	         -0.00000000	          0.00000000	         -0.00000000	          1.47258875	          7.82606594	          1.67784234	          0.12960580	          0.00000000	          0.02898944	          0.00000000	          0.00000000	          0.00000000	          0.00000000	          0.05585329	          0.00000000	
          2.24800000	          0.00000000	          0.00000000	          0.00000000	         -0.00000000	          0.00000000	         -0.00000000	          1.01795005	          6.30626894	          1.56473300	          0.12220231	          0.00000000	          0.02725339	          0.00000000	          0.00000000	          0.00000000	          0.00000000	          0.05398996	          0.00000000	
          2.24900000	          0.00000000	          0.00000000	          0.00000000	         -0.00000000	          0.00000000	         -0.00000000	          0.59812002	          4.89186149	          1.45532793	          0.11496653	          0.00000000	          0.02556195	          0.00000000	          0.00000000	          0.00000000	          0.00000000	          0.05208104	          0.00000000	
          2.25000000	          0.00000000	          0.00000000	          0.00000000	         -0.00000000	          0.00000000	         -0.00000000	          0.21172554	          3.57922765	          1.34972559	          0.10791153	          0.00000000	          0.02391774	          0.00000000	          0.00000000	          0.00000000	          0.00000000	          0.05013763	          0.00000000	
          2.25100000	          0.00000000	          0.00000000	         -0.00000000	         -0.00000000	          0.00000000	         -0.00000000	         -0.14261614	          2.36467434	          1.24800170	          0.10104860	          0.00000000	          0.02232295	          0.00000000	          0.00000000	          0.00000000	          0.00000000	          0.04817000	          0.00000000	
          2.25200000	          0.00000000	          0.00000000	         -0.00000000	         -0.00000000	          0.00000000	         -0.00000000	         -0.46629129	          1.24445185	          1.15021089	          0.09438735	          0.00000000	          0.02077939	          0.00000000	          0.00000000	          0.00000000	          0.00000000	          0.04618764	          0.00000000	
          2.25300000	          0.00000000	          0.00000000	         -0.00000000	         -0.00000000	          0.00000000	         -0.00000000	         -0.76068423	          0.21477285	          1.05638829	          0.08793580	          0.00000000	          0.01928856	          0.00000000	          0.00000000	          0.00000000	          0.00000000	          0.04419929	          0.00000000	
          2.25400000	          0.00000000	          0.00000000	         -0.00000000	         -0.00000000	          0.00000000	         -0.00000000	         -1.02717221	         -0.72817013	          0.96655102	          0.08170050	          0.00000000	          0.01785160	          0.00000000	          0.00000000	          0.00000000	          0.00000000	          0.04221299	          0.00000000	
          2.25500000	          0.00000000	          0.00000000	         -0.00000000	         -0.00000000	          0.00000000	         -0.00000000	         -1.26712083	         -1.58818858	          0.88069973	          0.07568662	          0.00000000	          0.01646935	          0.00000000	          0.00000000	          0.00000000	          0.00000000	          0.04023605	          0.00000000	
